<?xml version="1.0" standalone="no"?>
<svg xmlns:xlink="http://www.w3.org/1999/xlink" id="wave" style="transform:rotate(180deg); transition: 0.3s" viewBox="0 0 1440 180" version="1.1" xmlns="http://www.w3.org/2000/svg"><defs><linearGradient id="sw-gradient-0" x1="0" x2="0" y1="1" y2="0"><stop stop-color="rgba(255, 255, 255, 1)" offset="0%"/><stop stop-color="rgba(255, 255, 255, 1)" offset="100%"/></linearGradient></defs><path style="transform:translate(0, 0px); opacity:1" fill="url(#sw-gradient-0)" d="M0,126L12.6,123C25.3,120,51,114,76,96C101.1,78,126,48,152,48C176.8,48,202,78,227,81C252.6,84,278,60,303,54C328.4,48,354,60,379,75C404.2,90,429,108,455,123C480,138,505,150,531,135C555.8,120,581,78,606,72C631.6,66,657,96,682,114C707.4,132,733,138,758,117C783.2,96,808,48,834,51C858.9,54,884,108,909,132C934.7,156,960,150,985,126C1010.5,102,1036,60,1061,42C1086.3,24,1112,30,1137,30C1162.1,30,1187,24,1213,45C1237.9,66,1263,114,1288,132C1313.7,150,1339,138,1364,123C1389.5,108,1415,90,1440,75C1465.3,60,1491,48,1516,39C1541.1,30,1566,24,1592,36C1616.8,48,1642,78,1667,102C1692.6,126,1718,144,1743,153C1768.4,162,1794,162,1806,162L1818.9,162L1818.9,180L1806.3,180C1793.7,180,1768,180,1743,180C1717.9,180,1693,180,1667,180C1642.1,180,1617,180,1592,180C1566.3,180,1541,180,1516,180C1490.5,180,1465,180,1440,180C1414.7,180,1389,180,1364,180C1338.9,180,1314,180,1288,180C1263.2,180,1238,180,1213,180C1187.4,180,1162,180,1137,180C1111.6,180,1086,180,1061,180C1035.8,180,1011,180,985,180C960,180,935,180,909,180C884.2,180,859,180,834,180C808.4,180,783,180,758,180C732.6,180,707,180,682,180C656.8,180,632,180,606,180C581.1,180,556,180,531,180C505.3,180,480,180,455,180C429.5,180,404,180,379,180C353.7,180,328,180,303,180C277.9,180,253,180,227,180C202.1,180,177,180,152,180C126.3,180,101,180,76,180C50.5,180,25,180,13,180L0,180Z"/></svg>