<?xml version="1.0" standalone="no"?>
<svg xmlns:xlink="http://www.w3.org/1999/xlink" id="wave" style="transform:rotate(0deg); transition: 0.3s" viewBox="0 0 1440 180" version="1.1" xmlns="http://www.w3.org/2000/svg"><defs><linearGradient id="sw-gradient-0" x1="0" x2="0" y1="1" y2="0"><stop stop-color="rgba(38, 38, 38, 1)" offset="0%"/><stop stop-color="rgba(38, 38, 38, 1)" offset="100%"/></linearGradient></defs><path style="transform:translate(0, 0px); opacity:1" fill="url(#sw-gradient-0)" d="M0,90L12.6,87C25.3,84,51,78,76,63C101.1,48,126,24,152,27C176.8,30,202,60,227,81C252.6,102,278,114,303,111C328.4,108,354,90,379,84C404.2,78,429,84,455,72C480,60,505,30,531,21C555.8,12,581,24,606,39C631.6,54,657,72,682,69C707.4,66,733,42,758,48C783.2,54,808,90,834,114C858.9,138,884,150,909,138C934.7,126,960,90,985,63C1010.5,36,1036,18,1061,12C1086.3,6,1112,12,1137,33C1162.1,54,1187,90,1213,105C1237.9,120,1263,114,1288,96C1313.7,78,1339,48,1364,51C1389.5,54,1415,90,1440,108C1465.3,126,1491,126,1516,114C1541.1,102,1566,78,1592,69C1616.8,60,1642,66,1667,81C1692.6,96,1718,120,1743,132C1768.4,144,1794,144,1806,144L1818.9,144L1818.9,180L1806.3,180C1793.7,180,1768,180,1743,180C1717.9,180,1693,180,1667,180C1642.1,180,1617,180,1592,180C1566.3,180,1541,180,1516,180C1490.5,180,1465,180,1440,180C1414.7,180,1389,180,1364,180C1338.9,180,1314,180,1288,180C1263.2,180,1238,180,1213,180C1187.4,180,1162,180,1137,180C1111.6,180,1086,180,1061,180C1035.8,180,1011,180,985,180C960,180,935,180,909,180C884.2,180,859,180,834,180C808.4,180,783,180,758,180C732.6,180,707,180,682,180C656.8,180,632,180,606,180C581.1,180,556,180,531,180C505.3,180,480,180,455,180C429.5,180,404,180,379,180C353.7,180,328,180,303,180C277.9,180,253,180,227,180C202.1,180,177,180,152,180C126.3,180,101,180,76,180C50.5,180,25,180,13,180L0,180Z"/></svg>